<svg width="98" height="26" viewBox="0 0 98 26" fill="none" xmlns="http://www.w3.org/2000/svg">
<path d="M24.3033 5.4704V20.3632H21.286V5.4704H24.3033Z" fill="white"/>
<path d="M36.6 10.3168V20.384C36.6 23.504 34.182 25.4176 31.2267 25.4176C28.3747 25.4176 26.246 23.6288 26.0393 21.112L29.036 21.1328C29.16 22.1936 30.09 22.672 31.33 22.672C32.4873 22.672 33.5827 22.048 33.5827 20.4048V19.136C32.818 19.6352 31.826 19.9264 30.7307 19.9264C27.982 19.9264 25.7707 17.68 25.7707 15.1008C25.7707 12.1056 27.982 10.088 30.7307 10.088C31.826 10.088 32.818 10.3792 33.5827 10.8784V10.3376L36.6 10.3168ZM33.5827 16.2448V13.7904C32.9627 12.896 32.1153 12.584 31.268 12.584C29.78 12.584 28.7673 13.5824 28.7673 15.1008C28.7673 16.224 29.8007 17.4304 31.268 17.4304C32.1153 17.4512 32.9833 17.1392 33.5827 16.2448Z" fill="white"/>
<path d="M48.628 15.2256C48.628 18.3248 46.3547 20.5296 43.296 20.5296C40.2167 20.5296 37.9433 18.3248 37.9433 15.2256C37.9433 12.1472 40.2167 9.90076 43.296 9.90076C46.3547 9.90076 48.628 12.1472 48.628 15.2256ZM45.714 15.2256C45.714 13.7696 44.7633 12.584 43.296 12.584C41.808 12.584 40.8573 13.7696 40.8573 15.2256C40.8573 16.7232 41.808 17.8464 43.296 17.8464C44.7633 17.8256 45.714 16.7232 45.714 15.2256Z" fill="white"/>
<path d="M67.352 10.3376V20.3424L64.3967 20.3632V19.8016C63.632 20.3008 62.64 20.6128 61.5447 20.6128C58.796 20.6128 56.5847 18.2624 56.5847 15.3712C56.5847 12.4592 58.796 10.1088 61.5447 10.1088C62.64 10.1088 63.632 10.4208 64.3967 10.92V10.3584L67.352 10.3376ZM64.376 16.8896V13.832C63.756 12.9376 62.888 12.688 62.02 12.688C60.5113 12.688 59.4573 13.9152 59.4573 15.3712C59.4573 16.8064 60.5113 18.0336 62.02 18.0336C62.888 18.0336 63.756 17.784 64.376 16.8896Z" fill="white"/>
<path d="M79.504 14.9344V20.3632H76.59V15.288C76.59 13.6448 75.784 12.792 74.3373 12.792C73.5933 12.792 72.746 13.2288 72.0433 14.0608V20.3632H69.0673V10.3584H72.0433V11.1072C72.8493 10.4624 73.8 10.1088 74.916 10.1088C77.5613 10.1088 79.504 11.9808 79.504 14.9344Z" fill="white"/>
<path d="M94.57 5.84479H93.826V7.61279H93.392V5.84479H92.648V5.44958H94.5493V5.84479H94.57Z" fill="white"/>
<path d="M97.0914 7.63358H96.6574V6.40639L96.0994 7.30079H95.8307L95.252 6.38558V7.61279H94.818V5.44958H95.128L95.9547 6.75999L96.7814 5.44958H97.0914V7.63358Z" fill="white"/>
<path d="M19.9013 20.3424H16.8427L14.838 12.8752L10.5393 20.3424H7.10867L13.7427 8.77758L12.668 4.74239L3.71933 20.3424H0.288666L11.6347 0.561584H14.652L15.954 5.49119H19.054L16.946 9.19358L19.9013 20.3424Z" fill="white"/>
<path d="M91.5113 5.4704V20.3632H88.494V19.8016C87.7293 20.3008 86.7373 20.6128 85.642 20.6128C82.8933 20.6128 80.682 18.2624 80.682 15.3504C80.682 12.4592 82.8933 10.1088 85.642 10.1088C86.7373 10.1088 87.7293 10.4208 88.494 10.92V5.4704H91.5113ZM88.494 16.8896V13.8112C87.874 12.9168 86.9853 12.6672 86.1173 12.6672C84.588 12.6672 83.534 13.8944 83.534 15.3504C83.534 16.8272 84.588 18.0544 86.1173 18.0544C86.9853 18.0544 87.8533 17.8048 88.494 16.8896Z" fill="white"/>
<path d="M56.0267 12.8752C55.3654 12.9584 53.836 13.0416 52.9267 14.2896V20.3632H49.9507V10.3792H52.9267V11.128C53.6087 10.5456 54.6214 10.192 56.0267 10.3376" fill="white"/>
</svg>
